<?xml version="1.0" encoding="iso-8859-1"?>
<!-- Generator: Adobe Illustrator 19.0.0, SVG Export Plug-In . SVG Version: 6.00 Build 0)  -->
<svg xmlns="http://www.w3.org/2000/svg" xmlns:xlink="http://www.w3.org/1999/xlink" version="1.1" id="Capa_1" x="0px" y="0px" viewBox="0 0 512 512" style="enable-background:new 0 0 512 512;" xml:space="preserve" width="512px" height="512px">
<g>
	<g>
		<path d="M160,256c0-38.984-28.036-71.526-65-78.569v-18.862c36.964-7.043,65-39.585,65-78.569c0-44.112-35.888-80-80-80    S0,35.888,0,80c0,38.984,28.036,71.526,65,78.569v18.862C28.036,184.474,0,217.016,0,256s28.036,71.526,65,78.569v18.862    C28.036,360.474,0,393.016,0,432c0,44.112,35.888,80,80,80s80-35.888,80-80c0-38.984-28.036-71.526-65-78.569v-18.862    C131.964,327.526,160,294.984,160,256z M30,80c0-27.57,22.43-50,50-50s50,22.43,50,50s-22.43,50-50,50S30,107.57,30,80z M130,432    c0,27.57-22.43,50-50,50s-50-22.43-50-50s22.43-50,50-50S130,404.43,130,432z M80,306c-27.57,0-50-22.43-50-50s22.43-50,50-50    s50,22.43,50,50S107.57,306,80,306z" fill="#328ec7"/>
	</g>
</g>
<g>
	<g>
		<rect x="65" y="72" width="30" height="41" fill="#328ec7"/>
	</g>
</g>
<g>
	<g>
		<rect x="65" y="43" width="30" height="19" fill="#328ec7"/>
	</g>
</g>
<g>
	<g>
		<rect x="65" y="248" width="30" height="41" fill="#328ec7"/>
	</g>
</g>
<g>
	<g>
		<rect x="65" y="219" width="30" height="19" fill="#328ec7"/>
	</g>
</g>
<g>
	<g>
		<rect x="65" y="424" width="30" height="41" fill="#328ec7"/>
	</g>
</g>
<g>
	<g>
		<rect x="65" y="395" width="30" height="19" fill="#328ec7"/>
	</g>
</g>
<g>
	<g>
		<path d="M226,0v36h-73.949L226,140.761V330h286V0H226z M226,88.739L209.949,66H226V88.739z M482,300H256V30h226V300z" fill="#328ec7"/>
	</g>
</g>
<g>
	<g>
		<rect x="292" y="118" width="154" height="30" fill="#328ec7"/>
	</g>
</g>
<g>
	<g>
		<rect x="292" y="58" width="94" height="30" fill="#328ec7"/>
	</g>
</g>
<g>
	<g>
		<rect x="292" y="238" width="154" height="30" fill="#328ec7"/>
	</g>
</g>
<g>
	<g>
		<rect x="292" y="178" width="154" height="30" fill="#328ec7"/>
	</g>
</g>
<g>
</g>
<g>
</g>
<g>
</g>
<g>
</g>
<g>
</g>
<g>
</g>
<g>
</g>
<g>
</g>
<g>
</g>
<g>
</g>
<g>
</g>
<g>
</g>
<g>
</g>
<g>
</g>
<g>
</g>
</svg>
