<?xml version="1.0" encoding="iso-8859-1"?>
<!-- Generator: Adobe Illustrator 19.0.0, SVG Export Plug-In . SVG Version: 6.00 Build 0)  -->
<svg xmlns="http://www.w3.org/2000/svg" xmlns:xlink="http://www.w3.org/1999/xlink" version="1.1" id="Capa_1" x="0px" y="0px" viewBox="0 0 512 512" style="enable-background:new 0 0 512 512;" xml:space="preserve" width="512px" height="512px">
<g>
	<g>
		<path d="M252,172c-5.51,0-10,4.49-10,10s4.49,10,10,10s10-4.49,10-10S257.51,172,252,172z" fill="#0076d6"/>
	</g>
</g>
<g>
	<g>
		<path d="M502,40H159.994C155.348,17.205,135.146,0,111,0S66.652,17.205,62.006,40H10C4.477,40,0,44.478,0,50v452    c0,5.522,4.477,10,10,10h492c5.523,0,10-4.478,10-10V50C512,44.478,507.523,40,502,40z M327,100v21.72    c-11.639,4.128-20,15.243-20,28.28s8.361,24.152,20,28.28V204h-26c-26.911,0-49.354,19.433-54.072,45H122.72    c4.128-11.639,15.243-20,28.28-20h40c5.523,0,10-4.478,10-10v-27h11c5.51,0,10-4.49,10-10s-4.49-10-10-10h-11v-42    c0-5.522-4.477-10-10-10s-10,4.478-10,10v10h-41.725c-2.304-6.491-6.775-11.965-12.548-15.534    c4.308-6.634,9.691-15.245,14.908-24.466H327z M347,121.72V100h65v104h-65v-25.72c11.639-4.128,20-15.243,20-28.28    S358.639,125.848,347,121.72z M261,369h30v31H180v-41v-90h66.928c4.119,22.322,21.751,39.953,44.072,44.072V349h-30    c-5.51,0-10,4.49-10,10S255.49,369,261,369z M291,420v32H180v-32H291z M267.463,269h74.564c-5.348,7.108-8.847,15.681-9.777,25    H301C285.176,294,271.777,283.44,267.463,269z M311,314h23.942c6.357,19.364,21.593,44.473,31.331,59.466    C357.716,378.756,352,388.222,352,399c0,12.659,7.886,23.504,19,27.902V452h-60V314z M352,299c0-16.542,13.458-30,30-30    s30,13.458,30,30c0,10.922-15.608,39.429-30.001,61.92C367.606,338.437,352,309.935,352,299z M382,389c5.514,0,10,4.486,10,10    c0,5.514-4.486,10-10,10c-5.514,0-10-4.486-10-10C372,393.486,376.486,389,382,389z M391,427.619    c12.158-3.832,21-15.211,21-28.619c0-10.778-5.716-20.244-14.273-25.534c9.738-14.994,24.974-40.103,31.331-59.466H452v138h-61    V427.619z M431.749,294c-0.93-9.319-4.429-17.892-9.777-25H452v25H431.749z M267.463,249c4.314-14.44,17.712-25,33.537-25h121    c5.523,0,10-4.478,10-10V100h20v149H267.463z M337,160c-5.514,0-10-4.486-10-10c0-5.514,4.486-10,10-10c5.514,0,10,4.486,10,10    C347,155.514,342.514,160,337,160z M120,387.28c8.509-3.018,15.262-9.771,18.28-18.28H160v83h-40V387.28z M110,369    c-5.514,0-10-4.486-10-10c0-5.514,4.486-10,10-10s10,4.486,10,10C120,364.514,115.514,369,110,369z M138.28,349    c-4.128-11.639-15.243-20-28.28-20c-16.542,0-30,13.458-30,30c0,13.036,8.361,24.152,20,28.28V452H60V309h51    c5.523,0,10-4.478,10-10v-30h39v80H138.28z M111,180c13.036,0,24.152-8.361,28.28-20H181v49h-30    c-24.146,0-44.348,17.205-48.994,40H60v-89h22.72C86.848,171.639,97.964,180,111,180z M101,150c0-5.514,4.486-10,10-10    s10,4.486,10,10c0,5.514-4.486,10-10,10S101,155.514,101,150z M101,269v20H60v-20H101z M111,20c16.542,0,30,13.458,30,30    c0,10.922-15.608,39.429-30.001,61.92C96.606,89.437,81,60.935,81,50C81,33.458,94.458,20,111,20z M80.365,100    c5.217,9.222,10.6,17.833,14.908,24.466C89.5,128.035,85.029,133.509,82.725,140H60v-40H80.365z M492,492H20V60h42.47    c1.556,6.068,4.237,12.93,7.515,20H50c-5.523,0-10,4.478-10,10v372c0,5.522,4.477,10,10,10h412c5.523,0,10-4.478,10-10V90    c0-5.522-4.477-10-10-10H152.015c3.278-7.07,5.959-13.932,7.515-20H492V492z" fill="#0076d6"/>
	</g>
</g>
<g>
	<g>
		<path d="M221,349c-5.51,0-10,4.49-10,10s4.49,10,10,10s10-4.49,10-10S226.51,349,221,349z" fill="#0076d6"/>
	</g>
</g>
<g>
</g>
<g>
</g>
<g>
</g>
<g>
</g>
<g>
</g>
<g>
</g>
<g>
</g>
<g>
</g>
<g>
</g>
<g>
</g>
<g>
</g>
<g>
</g>
<g>
</g>
<g>
</g>
<g>
</g>
</svg>
