<svg id="Layer_1" data-name="Layer 1" xmlns="http://www.w3.org/2000/svg" viewBox="0 0 1220 626"><defs><style>.cls-1{fill:#00b3ff;}.cls-2{opacity:0;}.cls-3{fill:none;stroke:#0044ef;stroke-miterlimit:10;stroke-width:2px;}.cls-4{fill:#00597f;}</style></defs><title>logo-horizantal-01-b</title><path class="cls-1" d="M791.64,153.35V283.54q0,33.6-23.26,52.59t-60.35,19q-36.94,0-60-19t-23-52.59V153.35H666.8V283.54q0,19.95,11.13,30.46T708,324.52q19.26,0,30.53-10.52t11.27-30.46V153.35Z"/><path class="cls-1" d="M827.74,352.25V153.35h68q36.68,0,57.21,13.72t20.55,40.78a42.12,42.12,0,0,1-7.42,24.46q-7.41,10.78-21.68,16.25,19.39,3.42,29.24,16.12a47,47,0,0,1,9.85,29.65q0,28.55-19.69,43.24t-55.79,14.68ZM869.4,236.68h27.82q16.69,0,25.68-6.56t9-19.12q0-13.8-9.06-20.36t-27-6.56H869.4Zm0,27.59v57.38h38.66q16.56,0,25.26-6.9t8.7-20.42q0-14.47-8.56-22.27t-25.83-7.79Z"/><path class="cls-1" d="M1182,270.7a90,90,0,0,1-4.35,28.27,82.39,82.39,0,0,1-12.34,23.91l16.69,4.2v26.86l-43.37-8.79a87.71,87.71,0,0,1-20.48,7.44,101.56,101.56,0,0,1-23,2.53q-38.52,0-62.49-23.91t-24-60.51V234.9q0-36.47,23.9-60.45t62.27-24q38.67,0,62.93,24T1182,234.9Zm-41.52-36.07q0-23.22-12.13-38.11t-33.53-14.9q-21.1,0-32.88,14.9t-11.77,38.11V270.7q0,23.63,11.84,38.52t33.1,14.89q21.41,0,33.39-14.89t12-38.52Z"/><g class="cls-2"><rect class="cls-3" x="1.11" y="28" width="570" height="570"/><line class="cls-3" x1="1.11" y1="503" x2="571.11" y2="503"/><line class="cls-3" x1="1.11" y1="408" x2="571.11" y2="408"/><line class="cls-3" x1="1.11" y1="313" x2="571.11" y2="313"/><line class="cls-3" x1="1.11" y1="218" x2="571.11" y2="218"/><line class="cls-3" x1="1.11" y1="123" x2="571.11" y2="123"/><line class="cls-3" x1="476.11" y1="28" x2="476.11" y2="598"/><line class="cls-3" x1="381.11" y1="28" x2="381.11" y2="598"/><line class="cls-3" x1="286.11" y1="28" x2="286.11" y2="598"/><line class="cls-3" x1="191.11" y1="28" x2="191.11" y2="598"/><line class="cls-3" x1="96.11" y1="28" x2="96.11" y2="598"/></g><path class="cls-1" d="M550.23,431.28c0,1.07,0,2.11-.1,3.16,0,0,0,0,0,0A50.41,50.41,0,0,1,503,481.6h0c-1,.06-2.09.1-3.16.1A50.13,50.13,0,0,1,476,475.76a50.39,50.39,0,0,1-26-52.27,50.5,50.5,0,0,1,26-36.68,49.65,49.65,0,0,1,16-5.35,50.42,50.42,0,0,1,58.22,49.82Z"/><path class="cls-1" d="M381,312.44a.07.07,0,0,0,0,.06v0A0,0,0,0,0,381,312.44Z"/><path class="cls-1" d="M571.11,360a142.14,142.14,0,0,1-6.3,42,71.3,71.3,0,0,0-65-42c-1.44,0-2.87,0-4.28.13V360a66.83,66.83,0,0,0-19.3-47.07v0l-.19-.19-.26-.26a67.07,67.07,0,0,0-94.54,0l-.14.13a1.59,1.59,0,0,1-.13.13,0,0,0,0,0,0,0,67.12,67.12,0,0,0-14.49,72.64v0a67.11,67.11,0,0,0,14.49,21.85,0,0,0,0,0,0,0l.27.26A66.81,66.81,0,0,0,428.5,427h.13c-.1,1.41-.13,2.84-.13,4.28,0,2.21.09,4.39.3,6.56a70.81,70.81,0,0,0,8.52,27.82A71.37,71.37,0,0,0,464.05,493a.12.12,0,0,1,.08,0l0,0c2,1.18,4.14,2.26,6.31,3.25a143.05,143.05,0,0,1-85.41-.45c-1.39-.44-2.74-.9-4.09-1.37a139.72,139.72,0,0,1-13.88-5.76c-1.5-.71-3-1.47-4.47-2.25a142.73,142.73,0,0,1-34.95-25.65q-4.14-4.14-7.93-8.61a190,190,0,0,1-33.85,24.95q-6.78,3.93-13.91,7.3A190.15,190.15,0,0,1,.66,312.44V169.83a47.55,47.55,0,0,1,81.16-33.62,47.65,47.65,0,0,1,13.92,33.62V312.44c0,.82,0,1.63,0,2.45a95.09,95.09,0,0,0,95,92.62,96,96,0,0,0,15.82-1.31A95,95,0,0,0,258,379.66c16-15,21.14-25.46,27.85-44.18,2.34-6.5,4.87-14,8.12-23A143.14,143.14,0,0,1,363.6,233,139.47,139.47,0,0,1,381,225.48c1.35-.47,2.7-.93,4.09-1.37a143.09,143.09,0,0,1,66.61-4.86A138.56,138.56,0,0,1,472,224.13c1.35.44,2.68.88,4,1.35A142.5,142.5,0,0,1,571.11,360Z"/><path class="cls-1" d="M380.94,201.67a166,166,0,0,0-95.06,79.4V169.83A47.55,47.55,0,0,1,367,136.21a46.42,46.42,0,0,1,5.84,7.11h0A47.37,47.37,0,0,1,381,169.83Z"/><path class="cls-4" d="M661.9,414.48q-.84-9.87-7.07-15.23t-16.77-5.37q-10.86,0-16.48,4.62T616,412q0,6,3.75,9t15.06,5.89l16.55,4.33q13.32,3.48,19,10.3t5.71,19.1q0,14.21-9.8,22.51t-26.54,8.31q-18.62,0-29.1-9.59-10.22-9.45-10.21-25.85v-.78H612.2q.33,11.37,7.51,17.54t20,6.18q11.84,0,18-4.47t6.15-13.14q0-7.53-4-11.15t-16.18-6.74L627,439.11q-12.56-3.25-17.92-9.08t-5.34-16.12q0-15,9.27-23.75t25-8.77q16,0,25.52,8.8t10.14,24.29Z"/><path class="cls-4" d="M720,446.85,684.1,384.23h15l27.26,50.67,0,0,27.32-50.64h14.87l-35.8,62.84v41.54H720Z"/><path class="cls-4" d="M838.48,414.48q-.84-9.87-7.08-15.23t-16.77-5.37q-10.85,0-16.48,4.62T792.53,412q0,6,3.75,9t15.06,5.89l16.55,4.33q13.3,3.48,19,10.3t5.71,19.1q0,14.21-9.79,22.51t-26.54,8.31q-18.63,0-29.1-9.59Q777,472.41,777,456v-.78h11.83q.33,11.37,7.5,17.54t20,6.18q11.84,0,18-4.47t6.15-13.14q0-7.53-4-11.15t-16.17-6.74l-16.57-4.34q-12.55-3.25-17.92-9.08t-5.35-16.12q0-15,9.27-23.75t25-8.77q16,0,25.52,8.8t10.14,24.29Z"/><path class="cls-4" d="M892.8,396.73H860.68v-12.5h77.11v12.5H905.66v91.88H892.8Z"/><path class="cls-4" d="M951,488.61V384.23h69.48v12.5H963.9V428.6h51.7v12.5H963.9v35h57.33v12.5Z"/><path class="cls-4" d="M1050.12,488.61h-12.47V384.23h18.48l27.18,88.83h0l26.93-88.83h18.48V488.61h-12.47V400.28h0l-26.77,88.33H1077l-26.87-88.05h0Z"/><path class="cls-4" d="M1206.18,414.48q-.84-9.87-7.08-15.23t-16.77-5.37q-10.86,0-16.48,4.62T1160.23,412q0,6,3.75,9t15,5.89l16.55,4.33q13.32,3.48,19,10.3t5.71,19.1q0,14.21-9.8,22.51T1184,491.45q-18.62,0-29.1-9.59-10.21-9.45-10.21-25.85v-.78h11.83q.32,11.37,7.5,17.54t20,6.18q11.83,0,18-4.47t6.14-13.14q0-7.53-4-11.15t-16.18-6.74l-16.56-4.34q-12.55-3.25-17.93-9.08T1148,413.91q0-15,9.27-23.75t25-8.77q16,0,25.52,8.8T1218,414.48Z"/><g class="cls-2"><rect class="cls-3" x="569.01" y="28" width="567.84" height="567.84"/><line class="cls-3" x1="569.01" y1="501.2" x2="1136.85" y2="501.2"/><line class="cls-3" x1="569.01" y1="406.56" x2="1136.85" y2="406.56"/><line class="cls-3" x1="569.01" y1="311.92" x2="1136.85" y2="311.92"/><line class="cls-3" x1="569.01" y1="217.28" x2="1136.85" y2="217.28"/><line class="cls-3" x1="569.01" y1="122.64" x2="1136.85" y2="122.64"/><line class="cls-3" x1="1042.21" y1="28" x2="1042.21" y2="595.84"/><line class="cls-3" x1="947.57" y1="28" x2="947.57" y2="595.84"/><line class="cls-3" x1="852.93" y1="28" x2="852.93" y2="595.84"/><line class="cls-3" x1="758.29" y1="28" x2="758.29" y2="595.84"/><line class="cls-3" x1="663.65" y1="28" x2="663.65" y2="595.84"/></g></svg>