<svg id="图层_1" data-name="图层 1" xmlns="http://www.w3.org/2000/svg" viewBox="0 0 250.01 146.97"><defs><style>.cls-1{fill:#00597f;}.cls-2{fill:#007eb5;}.cls-3{fill:#fff;}.cls-4{fill:#00b3ff;}</style></defs><title>logo-horizantal-website</title><path class="cls-1" d="M167.82,88a33,33,0,0,1-19.74-.1c-.33-.1-.64-.21-1-.32a32.32,32.32,0,0,1-3.21-1.33c-.35-.16-.69-.34-1-.52a32.9,32.9,0,0,1-8.08-5.93c-.64-.64-1.25-1.3-1.84-2,.44-.4.86-.81,1.28-1.23a44.29,44.29,0,0,0,7-9.1,42.71,42.71,0,0,0,2.53-5.12,15.27,15.27,0,0,0,3.35,5.05h0v0s0,0,0,0a32.91,32.91,0,0,0,6.76,11.26,33.56,33.56,0,0,0,4.22,3.87,32.53,32.53,0,0,0,8.21,4.63h0C166.84,87.48,167.32,87.73,167.82,88Z" transform="translate(0.01 -1.49)"/><path class="cls-1" d="M80.2,8a44.6,44.6,0,0,0-8.12,6.41,44,44,0,0,0-6.42,8.13c-.2.32-.39.65-.58,1a43.76,43.76,0,0,0-5.88,22v-33A11,11,0,0,1,80.2,8Z" transform="translate(0.01 -1.49)"/><path class="cls-2" d="M114.16,88A44,44,0,0,1,65.08,23.47c.19-.33.38-.66.58-1a44,44,0,0,1,6.42-8.13A44.6,44.6,0,0,1,80.2,8a10.87,10.87,0,0,1,1,4.53v33c0,.19,0,.38,0,.57a43.66,43.66,0,0,0,3.87,17.53c.61,1.34,1.27,2.63,2,3.89a44.23,44.23,0,0,0,16.1,16.1A43.64,43.64,0,0,0,114.16,88Z" transform="translate(0.01 -1.49)"/><path class="cls-2" d="M166.34,87.2a32.53,32.53,0,0,1-8.21-4.63,33.56,33.56,0,0,1-4.22-3.87,32.91,32.91,0,0,1-6.76-11.26s0,0,0,0v0h0l.06.07a15.46,15.46,0,0,0,10.93,4.5h0q0,.5,0,1c0,.51,0,1,.07,1.52a16.32,16.32,0,0,0,2,6.43A16.12,16.12,0,0,0,163,84.59,16.56,16.56,0,0,0,166.34,87.2Z" transform="translate(0.01 -1.49)"/><path class="cls-3" d="M190.16,67.44c-.15-.44-.33-.87-.52-1.29h0a16.48,16.48,0,0,0-15-9.71q-.51,0-1,0a17.53,17.53,0,0,0-2.63.37h0a16.89,16.89,0,0,0-1.88.54,17.23,17.23,0,0,0-1.87.8,16.48,16.48,0,0,0-9.09,13.76q0,.5,0,1c0,.51,0,1,.07,1.52a16.32,16.32,0,0,0,2,6.43A16.12,16.12,0,0,0,163,84.59a16.56,16.56,0,0,0,3.39,2.61h0c.47.27.95.52,1.45.75h0c.42.19.85.37,1.28.52a16.42,16.42,0,0,0,5.5.94c.51,0,1,0,1.52-.07h0a16.49,16.49,0,0,0,14-21.91Zm-3.89,6.19,0,0h0a11.63,11.63,0,0,1-10.9,10.89h0l0,0h-.69a11.63,11.63,0,0,1-10.89-7.49,11.53,11.53,0,0,1-.77-4.17,11.92,11.92,0,0,1,.14-1.8,11.33,11.33,0,0,1,1.24-3.69,11.73,11.73,0,0,1,4.78-4.79,10.63,10.63,0,0,1,1.42-.64,10.93,10.93,0,0,1,2.28-.6,11.92,11.92,0,0,1,1.8-.14,11.65,11.65,0,0,1,10.28,6.17,11.52,11.52,0,0,1,1.38,5.49Z" transform="translate(0.01 -1.49)"/><path class="cls-4" d="M186.27,72.93c0,.25,0,.49,0,.73h0a11.63,11.63,0,0,1-10.9,10.89h0l-.73,0a11.63,11.63,0,0,1-10.89-7.49,11.53,11.53,0,0,1-.77-4.17,11.92,11.92,0,0,1,.14-1.8,11.33,11.33,0,0,1,1.24-3.69,11.73,11.73,0,0,1,4.78-4.79,10.63,10.63,0,0,1,1.42-.64,10.93,10.93,0,0,1,2.28-.6,11.92,11.92,0,0,1,1.8-.14,11.65,11.65,0,0,1,10.28,6.17A11.52,11.52,0,0,1,186.27,72.93Z" transform="translate(0.01 -1.49)"/><path class="cls-4" d="M168.19,25a32.86,32.86,0,0,0-3.43,1.32,33,33,0,0,0-17.61,19.1v.06h0a15.46,15.46,0,0,0-4.51,10.92,15.25,15.25,0,0,0,1.16,5.87h0a42.71,42.71,0,0,1-2.53,5.12,44.29,44.29,0,0,1-7,9.1c-.42.42-.84.83-1.28,1.23a44.36,44.36,0,0,1-7.82,5.77c-1.05.6-2.12,1.17-3.22,1.68A43.62,43.62,0,0,1,114.16,88a43.64,43.64,0,0,1-11-4.49,44.23,44.23,0,0,1-16.1-16.1c-.73-1.26-1.39-2.55-2-3.89A43.66,43.66,0,0,1,81.19,46a22,22,0,0,0,37.52,15c3.7-3.47,4.88-5.88,6.44-10.21.54-1.5,1.12-3.23,1.87-5.33a33.2,33.2,0,0,1,16.1-18.38,32.47,32.47,0,0,1,4-1.72c.31-.11.62-.22,1-.32a32.65,32.65,0,0,1,10-1.56A32.92,32.92,0,0,1,168.19,25Z" transform="translate(0.01 -1.49)"/><path class="cls-2" d="M191.1,56.44a32.74,32.74,0,0,1-1.46,9.71,16.48,16.48,0,0,0-15-9.71q-.51,0-1,0v0a15.49,15.49,0,0,0-4.46-10.88h0l0-.05,0,0,0,0a15.52,15.52,0,0,0-21.86,0l0,0,0,0h0v0h0a33.12,33.12,0,0,1,21-20.42l.92.32a32.94,32.94,0,0,1,22,31.09Z" transform="translate(0.01 -1.49)"/><path class="cls-1" d="M147.13,19.84a38.37,38.37,0,0,0-22,18.36V12.48a11,11,0,0,1,11-11,11,11,0,0,1,7.77,3.21,11.18,11.18,0,0,1,1.35,1.65h0a11,11,0,0,1,1.86,6.13Z" transform="translate(0.01 -1.49)"/><path class="cls-1" d="M114.08,139.8a5.69,5.69,0,0,0-1.22-3.7,9.32,9.32,0,0,0-4.28-2.54,13.11,13.11,0,0,1-5.94-3.62,8.65,8.65,0,0,1-2.13-6,9.15,9.15,0,0,1,2.29-6.36,8.26,8.26,0,0,1,12.25.37,10.18,10.18,0,0,1,2.27,6.79l0,.13h-3.22a7,7,0,0,0-1.49-4.57,4.68,4.68,0,0,0-3.79-1.8,4.47,4.47,0,0,0-3.63,1.49,5.82,5.82,0,0,0-1.26,3.88,4.85,4.85,0,0,0,1.38,3.53,11.43,11.43,0,0,0,4.48,2.49,12.05,12.05,0,0,1,5.75,3.75,9.51,9.51,0,0,1,2,6.11,8.54,8.54,0,0,1-2.38,6.31,8.35,8.35,0,0,1-6.19,2.38,9.1,9.1,0,0,1-9.07-9.68l0-.13h3.23a6.13,6.13,0,0,0,1.78,4.72,5.79,5.79,0,0,0,4,1.66,5.09,5.09,0,0,0,3.79-1.41A5.15,5.15,0,0,0,114.08,139.8Z" transform="translate(0.01 -1.49)"/><path class="cls-1" d="M129,132l6.51-16.5h3.86l-8.76,21V148h-3.36V136.23l-8.62-20.71h3.86Z" transform="translate(0.01 -1.49)"/><path class="cls-1" d="M155.66,139.8a5.63,5.63,0,0,0-1.22-3.7,9.32,9.32,0,0,0-4.28-2.54,13.11,13.11,0,0,1-5.94-3.62,8.65,8.65,0,0,1-2.13-6,9.15,9.15,0,0,1,2.29-6.36,8.26,8.26,0,0,1,12.25.37,10.18,10.18,0,0,1,2.27,6.79l-.05.13h-3.22a7,7,0,0,0-1.49-4.57,4.68,4.68,0,0,0-3.79-1.8,4.47,4.47,0,0,0-3.63,1.49,5.82,5.82,0,0,0-1.26,3.88,4.85,4.85,0,0,0,1.38,3.53,11.43,11.43,0,0,0,4.48,2.49,12.05,12.05,0,0,1,5.75,3.75,9.51,9.51,0,0,1,2,6.11,8.54,8.54,0,0,1-2.38,6.31,8.33,8.33,0,0,1-6.19,2.38,9.1,9.1,0,0,1-9.07-9.68l0-.13h3.22a6.13,6.13,0,0,0,1.78,4.72,5.79,5.79,0,0,0,4,1.66,4.85,4.85,0,0,0,5.19-5.22Z" transform="translate(0.01 -1.49)"/><path class="cls-1" d="M181.27,119H173v29h-3.38V119h-8.12v-3.45h19.73Z" transform="translate(0.01 -1.49)"/><path class="cls-1" d="M198.44,132.93H188.19v11.62h12V148H184.81V115.52H200V119H188.19v10.51h10.25Z" transform="translate(0.01 -1.49)"/><path class="cls-1" d="M216.56,141.9h.1l8-26.38h4.2V148h-3.38V123.66l-.1,0L217.79,148h-2.35l-7.78-25.15-.1,0V148h-3.38V115.52h4.44Z" transform="translate(0.01 -1.49)"/><path class="cls-1" d="M246.62,139.8a5.68,5.68,0,0,0-1.21-3.7,9.31,9.31,0,0,0-4.29-2.54,13.21,13.21,0,0,1-5.94-3.62,8.65,8.65,0,0,1-2.13-6,9.11,9.11,0,0,1,2.3-6.36,8.25,8.25,0,0,1,12.24.37,10.18,10.18,0,0,1,2.27,6.79l-.05.13h-3.22a7,7,0,0,0-1.48-4.57,4.71,4.71,0,0,0-3.8-1.8,4.45,4.45,0,0,0-3.62,1.49,5.82,5.82,0,0,0-1.26,3.88,4.85,4.85,0,0,0,1.38,3.53,11.35,11.35,0,0,0,4.48,2.49,12,12,0,0,1,5.74,3.75,9.51,9.51,0,0,1,2,6.11,8.57,8.57,0,0,1-2.37,6.31,8.37,8.37,0,0,1-6.2,2.38,9.11,9.11,0,0,1-9.07-9.68l0-.13h3.22a6.13,6.13,0,0,0,1.78,4.72,5.79,5.79,0,0,0,4,1.66,4.83,4.83,0,0,0,5.19-5.22Z" transform="translate(0.01 -1.49)"/><path class="cls-4" d="M27.18,115.26V136.5a10.48,10.48,0,0,1-3.8,8.58,15.09,15.09,0,0,1-9.84,3.1,14.93,14.93,0,0,1-9.79-3.1A10.54,10.54,0,0,1,0,136.5V115.26H6.81V136.5a6.52,6.52,0,0,0,1.82,5,6.88,6.88,0,0,0,4.91,1.71,7,7,0,0,0,5-1.71,6.46,6.46,0,0,0,1.84-5V115.26Z" transform="translate(0.01 -1.49)"/><path class="cls-4" d="M33.07,147.71V115.26h11.1q6,0,9.33,2.24a7.46,7.46,0,0,1,3.35,6.65,6.84,6.84,0,0,1-1.21,4,7.2,7.2,0,0,1-3.53,2.65,7.41,7.41,0,0,1,4.77,2.63,7.7,7.7,0,0,1,1.6,4.84,8.24,8.24,0,0,1-3.21,7.05q-3.21,2.4-9.1,2.4Zm6.79-18.85H44.4a7,7,0,0,0,4.19-1.07,3.63,3.63,0,0,0,1.47-3.12,3.85,3.85,0,0,0-1.48-3.33,7.55,7.55,0,0,0-4.41-1.07H39.86Zm0,4.5v9.36h6.31a6.52,6.52,0,0,0,4.12-1.13,4,4,0,0,0,1.42-3.33,4.64,4.64,0,0,0-1.4-3.63,6.06,6.06,0,0,0-4.21-1.27Z" transform="translate(0.01 -1.49)"/><path class="cls-4" d="M90.86,134.4a14.8,14.8,0,0,1-.71,4.62,13.62,13.62,0,0,1-2,3.9l2.73.68V148l-7.08-1.43a14.29,14.29,0,0,1-3.34,1.21,16.29,16.29,0,0,1-3.76.42,13.8,13.8,0,0,1-10.19-3.9,13.35,13.35,0,0,1-3.91-9.88v-5.83a13.41,13.41,0,0,1,3.9-9.87,13.74,13.74,0,0,1,10.16-3.91A14,14,0,0,1,86.9,118.7a13.3,13.3,0,0,1,4,9.87Zm-6.78-5.88a9.54,9.54,0,0,0-2-6.22,6.68,6.68,0,0,0-5.47-2.43,6.46,6.46,0,0,0-5.37,2.43,9.74,9.74,0,0,0-1.92,6.22v5.88a9.85,9.85,0,0,0,1.93,6.29,6.51,6.51,0,0,0,5.4,2.43,6.6,6.6,0,0,0,5.45-2.43,9.75,9.75,0,0,0,2-6.29Z" transform="translate(0.01 -1.49)"/></svg>