<?xml version="1.0" encoding="iso-8859-1"?>
<!-- Generator: Adobe Illustrator 19.0.0, SVG Export Plug-In . SVG Version: 6.00 Build 0)  -->
<svg version="1.1" id="Capa_1" xmlns="http://www.w3.org/2000/svg" xmlns:xlink="http://www.w3.org/1999/xlink" x="0px" y="0px"
	 viewBox="0 0 468.293 468.293" style="enable-background:new 0 0 468.293 468.293;" xml:space="preserve">
<g>
	<path style="fill:#64798A;" d="M207.751,33.587c-2.539-3.809-3.894-8.284-3.894-12.862V7.789c0-4.302-3.487-7.789-7.789-7.789
		c-4.301,0-7.789,3.487-7.789,7.789v12.936c0,4.578-1.355,9.053-3.894,12.862c-2.539,3.809-3.894,8.284-3.894,12.862v16.345h31.155
		V46.449C211.646,41.871,210.29,37.395,207.751,33.587z"/>
	<path style="fill:#64798A;" d="M180.491,421.844c0,4.578,1.355,9.053,3.894,12.862c2.539,3.809,3.894,8.284,3.894,12.862v12.937
		c0,4.301,3.487,7.789,7.789,7.789c4.302,0,7.789-3.487,7.789-7.789v-12.937c0-4.578,1.355-9.053,3.894-12.862
		c2.539-3.809,3.894-8.284,3.894-12.862v-16.345h-31.155V421.844z"/>
	<path style="fill:#64798A;" d="M131.596,33.587c-2.539-3.809-3.894-8.284-3.894-12.862V7.789c0-4.302-3.487-7.789-7.789-7.789
		c-4.301,0-7.789,3.487-7.789,7.789v12.936c0,4.578-1.355,9.053-3.894,12.862c-2.539,3.809-3.894,8.284-3.894,12.862v16.345h31.155
		V46.449C135.49,41.871,134.135,37.395,131.596,33.587z"/>
	<path style="fill:#64798A;" d="M104.335,421.844c0,4.578,1.355,9.053,3.894,12.862c2.539,3.809,3.894,8.284,3.894,12.862v12.937
		c0,4.301,3.487,7.789,7.789,7.789c4.302,0,7.789-3.487,7.789-7.789v-12.937c0-4.578,1.355-9.053,3.894-12.862
		c2.539-3.809,3.894-8.284,3.894-12.862v-16.345h-31.155V421.844z"/>
	<path style="fill:#64798A;" d="M283.907,33.587c-2.539-3.809-3.894-8.284-3.894-12.862V7.789c0-4.302-3.487-7.789-7.789-7.789
		c-4.301,0-7.789,3.487-7.789,7.789v12.936c0,4.578-1.355,9.053-3.894,12.862c-2.539,3.809-3.894,8.284-3.894,12.862v16.345h31.155
		V46.449C287.801,41.871,286.446,37.395,283.907,33.587z"/>
	<path style="fill:#64798A;" d="M256.647,421.844c0,4.578,1.355,9.053,3.894,12.862c2.539,3.809,3.894,8.284,3.894,12.862v12.937
		c0,4.301,3.487,7.789,7.789,7.789c4.302,0,7.789-3.487,7.789-7.789v-12.937c0-4.578,1.355-9.053,3.894-12.862
		c2.539-3.809,3.894-8.284,3.894-12.862v-16.345h-31.155V421.844z"/>
	<path style="fill:#64798A;" d="M360.062,33.587c-2.539-3.809-3.894-8.284-3.894-12.862V7.789c0-4.302-3.487-7.789-7.789-7.789
		c-4.301,0-7.789,3.487-7.789,7.789v12.936c0,4.578-1.355,9.053-3.894,12.862c-2.539,3.809-3.894,8.284-3.894,12.862v16.345h31.155
		V46.449C363.957,41.871,362.602,37.395,360.062,33.587z"/>
	<path style="fill:#64798A;" d="M332.802,421.844c0,4.578,1.355,9.053,3.894,12.862c2.539,3.809,3.894,8.284,3.894,12.862v12.937
		c0,4.301,3.487,7.789,7.789,7.789c4.302,0,7.789-3.487,7.789-7.789v-12.937c0-4.578,1.355-9.053,3.894-12.862
		c2.539-3.809,3.894-8.284,3.894-12.862v-16.345h-31.155V421.844z"/>
	<path style="fill:#64798A;" d="M434.706,207.752c3.809-2.539,8.284-3.894,12.862-3.894l12.936,0c4.302,0,7.789-3.487,7.789-7.789
		c0-4.301-3.487-7.789-7.789-7.789l-12.936,0c-4.578,0-9.052-1.355-12.862-3.894c-3.809-2.539-8.284-3.894-12.862-3.894l-16.346,0
		v31.155l16.346,0C426.422,211.646,430.897,210.291,434.706,207.752z"/>
	<path style="fill:#64798A;" d="M46.449,180.492c-4.578,0-9.053,1.355-12.862,3.894c-3.809,2.539-8.284,3.894-12.862,3.894
		l-12.937,0c-4.301,0-7.789,3.487-7.789,7.789c0,4.302,3.487,7.789,7.789,7.789l12.937,0c4.578,0,9.053,1.355,12.862,3.894
		c3.809,2.539,8.284,3.894,12.862,3.894l16.345,0l0-31.155L46.449,180.492z"/>
	<path style="fill:#64798A;" d="M434.706,131.597c3.809-2.539,8.284-3.894,12.862-3.894l12.936,0c4.302,0,7.789-3.487,7.789-7.789
		c0-4.301-3.487-7.789-7.789-7.789l-12.936,0c-4.578,0-9.052-1.355-12.862-3.894c-3.809-2.539-8.284-3.894-12.862-3.894l-16.345,0
		v31.155l16.346,0C426.422,135.491,430.897,134.136,434.706,131.597z"/>
	<path style="fill:#64798A;" d="M46.449,104.337c-4.578,0-9.053,1.355-12.862,3.894c-3.809,2.539-8.284,3.894-12.862,3.894
		l-12.937,0c-4.301,0-7.789,3.487-7.789,7.789c0,4.302,3.487,7.789,7.789,7.789l12.937,0c4.578,0,9.053,1.355,12.862,3.894
		c3.809,2.539,8.284,3.894,12.862,3.894l16.345,0l0-31.155L46.449,104.337z"/>
	<path style="fill:#64798A;" d="M434.706,283.908c3.809-2.539,8.284-3.894,12.862-3.894l12.936,0c4.302,0,7.789-3.487,7.789-7.789
		c0-4.301-3.487-7.789-7.789-7.789h-12.936c-4.578,0-9.053-1.355-12.862-3.894c-3.809-2.539-8.284-3.894-12.862-3.894l-16.345,0
		v31.155h16.345C426.422,287.802,430.897,286.447,434.706,283.908z"/>
	<path style="fill:#64798A;" d="M46.449,256.648c-4.578,0-9.053,1.355-12.862,3.894c-3.809,2.539-8.284,3.894-12.862,3.894H7.789
		c-4.301,0-7.789,3.487-7.789,7.789c0,4.302,3.487,7.789,7.789,7.789h12.937c4.578,0,9.053,1.355,12.862,3.894
		c3.809,2.539,8.284,3.894,12.862,3.894l16.345,0l0-31.155L46.449,256.648z"/>
	<path style="fill:#64798A;" d="M434.706,360.063c3.809-2.539,8.284-3.894,12.862-3.894l12.936,0c4.302,0,7.789-3.487,7.789-7.789
		c0-4.301-3.487-7.789-7.789-7.789l-12.936,0c-4.578,0-9.052-1.355-12.862-3.894c-3.809-2.539-8.284-3.894-12.862-3.894l-16.345,0
		v31.155l16.345,0C426.422,363.958,430.897,362.603,434.706,360.063z"/>
	<path style="fill:#64798A;" d="M46.449,332.804c-4.578,0-9.053,1.355-12.862,3.894c-3.809,2.539-8.284,3.894-12.862,3.894H7.789
		c-4.301,0-7.789,3.487-7.789,7.789c0,4.302,3.487,7.789,7.789,7.789h12.937c4.578,0,9.053,1.355,12.862,3.894
		c3.809,2.539,8.284,3.894,12.862,3.894l16.345,0l0-31.155L46.449,332.804z"/>
</g>
<path style="fill:#27A2DB;" d="M62.796,393.006V75.282c0-6.897,5.591-12.488,12.488-12.488h317.725
	c6.897,0,12.488,5.591,12.488,12.488v317.725c0,6.897-5.591,12.488-12.488,12.488H75.284
	C68.387,405.494,62.796,399.903,62.796,393.006z"/>
<path style="fill:#E1E6E9;" d="M356.661,369.149H111.631c-6.897,0-12.488-5.591-12.488-12.488V111.631
	c0-6.897,5.591-12.488,12.488-12.488h245.031c6.897,0,12.488,5.591,12.488,12.488v245.031
	C369.149,363.558,363.558,369.149,356.661,369.149z"/>
<g>
</g>
<g>
</g>
<g>
</g>
<g>
</g>
<g>
</g>
<g>
</g>
<g>
</g>
<g>
</g>
<g>
</g>
<g>
</g>
<g>
</g>
<g>
</g>
<g>
</g>
<g>
</g>
<g>
</g>
</svg>
